<?xml version="1.0" encoding="utf-8"?>
<!-- Generator: Adobe Illustrator 17.0.0, SVG Export Plug-In . SVG Version: 6.00 Build 0)  -->
<!DOCTYPE svg PUBLIC "-//W3C//DTD SVG 1.1//EN" "http://www.w3.org/Graphics/SVG/1.1/DTD/svg11.dtd">
<svg version="1.1" id="Layer_1" xmlns="http://www.w3.org/2000/svg" xmlns:xlink="http://www.w3.org/1999/xlink" x="0px" y="0px"
	 width="50px" height="50px" viewBox="0 0 50 50" enable-background="new 0 0 50 50" xml:space="preserve">
<g>
	<path d="M25,0C11.193,0,0,11.193,0,25s11.193,25,25,25c13.807,0,25-11.192,25-25S38.807,0,25,0z M25,45.894
		C13.479,45.894,4.106,36.521,4.106,25S13.479,4.106,25,4.106c11.521,0,20.894,9.373,20.894,20.894S36.521,45.894,25,45.894z"/>
	<path d="M40.446,20.117c-0.003-0.02-0.008-0.038-0.011-0.058c-0.007-0.037-0.013-0.075-0.023-0.111
		c-0.006-0.022-0.014-0.043-0.021-0.064c-0.011-0.033-0.021-0.065-0.034-0.097c-0.009-0.022-0.02-0.044-0.03-0.065
		c-0.014-0.03-0.029-0.059-0.045-0.088c-0.012-0.021-0.025-0.042-0.038-0.062c-0.018-0.028-0.036-0.055-0.056-0.081
		c-0.015-0.019-0.03-0.039-0.045-0.058c-0.021-0.024-0.043-0.049-0.066-0.072c-0.017-0.018-0.035-0.036-0.053-0.052
		c-0.024-0.022-0.05-0.043-0.075-0.063c-0.02-0.015-0.039-0.031-0.06-0.046c-0.008-0.005-0.015-0.011-0.022-0.016l-14.13-9.42
		c-0.446-0.298-1.027-0.298-1.474,0l-14.13,9.42c-0.007,0.005-0.014,0.011-0.022,0.016c-0.021,0.015-0.04,0.03-0.06,0.046
		c-0.026,0.02-0.051,0.041-0.075,0.063c-0.019,0.016-0.036,0.034-0.053,0.052C9.9,19.385,9.878,19.41,9.858,19.434
		c-0.016,0.019-0.031,0.038-0.046,0.058c-0.02,0.026-0.038,0.053-0.056,0.081c-0.013,0.02-0.026,0.041-0.038,0.062
		c-0.016,0.028-0.031,0.058-0.045,0.088c-0.01,0.021-0.021,0.043-0.03,0.065c-0.013,0.032-0.024,0.064-0.034,0.097
		c-0.007,0.021-0.015,0.042-0.021,0.064c-0.01,0.037-0.016,0.074-0.023,0.111c-0.003,0.02-0.008,0.038-0.011,0.058
		c-0.008,0.057-0.012,0.115-0.012,0.173v9.42c0,0.059,0.004,0.116,0.012,0.174c0.002,0.019,0.007,0.038,0.011,0.057
		c0.007,0.037,0.013,0.075,0.023,0.111c0.006,0.022,0.014,0.043,0.021,0.064c0.011,0.032,0.021,0.065,0.034,0.098
		c0.009,0.022,0.02,0.043,0.03,0.064c0.014,0.03,0.029,0.059,0.045,0.089c0.012,0.02,0.025,0.041,0.038,0.061
		c0.017,0.028,0.036,0.055,0.056,0.081c0.015,0.02,0.03,0.039,0.046,0.058c0.021,0.024,0.043,0.049,0.066,0.072
		c0.018,0.018,0.035,0.036,0.053,0.052c0.024,0.022,0.049,0.043,0.075,0.063c0.02,0.016,0.039,0.031,0.06,0.045
		c0.008,0.005,0.015,0.011,0.022,0.016l14.13,9.42c0.223,0.149,0.48,0.224,0.737,0.224c0.257,0,0.513-0.075,0.737-0.224l14.13-9.42
		c0.007-0.005,0.014-0.011,0.022-0.016c0.021-0.015,0.04-0.03,0.06-0.045c0.026-0.02,0.051-0.041,0.075-0.063
		c0.018-0.016,0.036-0.034,0.053-0.052c0.023-0.023,0.045-0.047,0.066-0.072c0.016-0.019,0.031-0.037,0.045-0.058
		c0.02-0.026,0.038-0.053,0.056-0.081c0.013-0.02,0.026-0.041,0.038-0.061c0.017-0.029,0.031-0.059,0.045-0.089
		c0.01-0.021,0.021-0.042,0.03-0.064c0.013-0.032,0.024-0.065,0.034-0.098c0.007-0.021,0.015-0.042,0.021-0.064
		c0.01-0.037,0.017-0.074,0.023-0.111c0.003-0.019,0.008-0.038,0.011-0.057c0.007-0.058,0.012-0.116,0.012-0.174v-9.42
		C40.458,20.232,40.453,20.174,40.446,20.117z M26.329,13.353l10.409,6.939l-4.649,3.11l-5.76-3.853V13.353z M23.671,13.353v6.196
		l-5.759,3.853l-4.65-3.11L23.671,13.353z M12.199,22.777L15.523,25l-3.324,2.223V22.777z M23.671,36.647l-10.409-6.939l4.65-3.109
		l5.759,3.852V36.647z M25,28.143L20.301,25L25,21.857L29.699,25L25,28.143z M26.329,36.647v-6.196l5.76-3.852l4.649,3.109
		L26.329,36.647z M37.801,27.223L34.478,25l3.323-2.223V27.223z"/>
</g>
</svg>
