<?xml version="1.0" encoding="utf-8"?>
<!-- Generator: Adobe Illustrator 17.0.0, SVG Export Plug-In . SVG Version: 6.00 Build 0)  -->
<!DOCTYPE svg PUBLIC "-//W3C//DTD SVG 1.1//EN" "http://www.w3.org/Graphics/SVG/1.1/DTD/svg11.dtd">
<svg version="1.1" id="Layer_1" xmlns="http://www.w3.org/2000/svg" xmlns:xlink="http://www.w3.org/1999/xlink" x="0px" y="0px"
	 width="50px" height="50px" viewBox="25 25 50 50" enable-background="new 25 25 50 50" xml:space="preserve">
<g>
	<path fill="#231F20" d="M51.494,50.22c0.277-0.09,0.558-0.174,0.839-0.254c-0.535-1.213-1.119-2.427-1.73-3.624
		C39.941,49.533,29.592,49.4,28.657,49.38c-0.006,0.218-0.011,0.435-0.011,0.654c0,5.484,2.08,10.491,5.491,14.278
		C34.621,63.482,40.48,53.779,51.494,50.22z M48.839,43.058c-3.538-6.289-7.353-11.577-7.917-12.35
		c-5.974,2.818-10.44,8.326-11.825,14.951C30.053,45.673,38.85,45.711,48.839,43.058z M64.156,34.06
		c-3.772-3.345-8.729-5.381-14.155-5.381c-1.722,0-3.399,0.207-5.003,0.595c0.59,0.79,4.468,6.071,7.967,12.501
		C60.558,38.928,63.772,34.607,64.156,34.06z M56.022,48.042c0.158,0.368,0.312,0.736,0.461,1.101
		c7.105-0.893,14.164,0.54,14.868,0.688c-0.046-5.04-1.848-9.668-4.822-13.301c-0.45,0.609-4.027,5.198-11.924,8.42
		C55.103,45.965,55.579,47,56.022,48.042z M53.645,53.544c-12.043,4.197-16.367,12.55-16.752,13.335
		c3.621,2.823,8.171,4.508,13.108,4.508c2.958,0,5.778-0.605,8.34-1.697c-0.317-1.874-1.558-8.403-4.554-16.194
		C53.74,53.512,53.693,53.527,53.645,53.544z M50.001,75C36.215,75,25,63.784,25,50c0-13.785,11.215-25,25.001-25
		C63.786,25,75,36.216,75,50S63.786,75,50.001,75z M57.782,52.51c2.794,7.674,3.931,13.926,4.151,15.225
		c4.789-3.24,8.201-8.371,9.152-14.313C70.353,53.192,64.476,51.438,57.782,52.51z"/>
</g>
</svg>
