<?xml version="1.0" encoding="utf-8"?>
<!-- Generator: Adobe Illustrator 17.0.0, SVG Export Plug-In . SVG Version: 6.00 Build 0)  -->
<!DOCTYPE svg PUBLIC "-//W3C//DTD SVG 1.1//EN" "http://www.w3.org/Graphics/SVG/1.1/DTD/svg11.dtd">
<svg version="1.1"
	 id="svg2" inkscape:version="0.48.4 r9939" sodipodi:docname="github.svg" xmlns:rdf="http://www.w3.org/1999/02/22-rdf-syntax-ns#" xmlns:cc="http://creativecommons.org/ns#" xmlns:sodipodi="http://sodipodi.sourceforge.net/DTD/sodipodi-0.dtd" xmlns:svg="http://www.w3.org/2000/svg" xmlns:inkscape="http://www.inkscape.org/namespaces/inkscape" xmlns:dc="http://purl.org/dc/elements/1.1/"
	 xmlns="http://www.w3.org/2000/svg" xmlns:xlink="http://www.w3.org/1999/xlink" x="0px" y="0px" width="50px" height="50px"
	 viewBox="575 575 50 50" enable-background="new 575 575 50 50" xml:space="preserve">
<path id="path10015" inkscape:connector-curvature="0" d="M600,575c-13.807,0-25,11.193-25,25s11.193,25,25,25s25-11.193,25-25
	S613.807,575,600,575z M600,577.722c12.304,0,22.278,9.974,22.278,22.278s-9.974,22.278-22.278,22.278s-22.278-9.974-22.278-22.278
	S587.696,577.722,600,577.722z M588.943,584.247c-0.634,1.844-0.854,3.846-0.287,5.594c-0.686,0.761-1.218,1.635-1.599,2.625
	c-1.015,3.209-0.767,7.309,1.456,9.79c0.781,0.856,1.841,1.56,3.174,2.112s3.047,0.904,5.142,1.056
	c-1.406,0.657-2.398,1.059-2.744,2.512c-1.569,1.048-3.476,0.798-4.858-0.342c-1.092-0.798-1.587-2.215-2.798-2.74
	c-0.076-0.076-0.314-0.133-0.714-0.171c-0.4-0.038-0.714,0.075-0.943,0.342c-0.114,0.114-0.106,0.236,0.027,0.369
	c0.917,0.746,1.799,1.536,2.316,2.484c0.495,1.027,1.008,1.78,1.541,2.255c1.479,1,3.464,1.52,5.2,0.885
	c-0.203,1.222,0.344,3.13-0.058,4.224c-0.152,0.304-0.37,0.571-0.656,0.799c-0.255,0.248-1.044,0.559-0.885,0.94
	c0.076,0.171,0.342,0.276,0.799,0.314c1.006-0.026,2.008-0.433,2.6-1.227c0.21-0.285,0.314-0.657,0.314-1.114v-4.678
	c0-0.533,0.113-0.913,0.342-1.141c0.229-0.228,0.478-0.382,0.745-0.458v6.165c0,0.533-0.048,0.99-0.143,1.37
	c-0.095,0.381-0.18,0.647-0.256,0.8c-0.175,0.293-0.509,0.564-0.516,0.912c0,0.114,0.068,0.179,0.201,0.198
	c1.001-0.043,2.162-0.631,2.57-1.456c0.324-0.685,0.485-1.406,0.485-2.167v-6.052h1.257v6.052c0,0.761,0.173,1.482,0.516,2.167
	c0.343,0.685,0.915,1.125,1.715,1.315c0.419,0.114,0.702,0.159,0.854,0.14s0.22-0.084,0.201-0.198
	c-0.092-0.346-0.283-0.642-0.485-0.912c-0.267-0.342-0.4-1.066-0.4-2.17v-6.165c0.267,0.076,0.524,0.229,0.772,0.458
	c0.248,0.228,0.369,0.609,0.369,1.141v4.678c0,0.457,0.105,0.828,0.314,1.114c0.637,0.81,1.596,1.221,2.6,1.227
	c0.457-0.038,0.723-0.143,0.8-0.314s0.02-0.313-0.171-0.427c-0.19-0.114-0.428-0.284-0.714-0.513s-0.504-0.495-0.656-0.799
	c-0.171-1.963-0.004-4.067-0.143-6.052c-0.275-2.166-1.108-2.878-2.771-3.708c1.981-0.152,3.61-0.516,4.886-1.086
	c3.815-1.854,4.87-4.719,4.886-8.56c-0.06-2.472-0.774-4.629-2.402-6.28c0.229-0.875,0.297-1.786,0.201-2.737
	c-0.095-0.951-0.296-1.809-0.601-2.57c-1.409,0.076-2.591,0.36-3.543,0.854c-0.952,0.495-1.638,0.915-2.057,1.257
	c-3.376-0.766-6.989-0.771-10.227,0.113C592.945,585.117,590.892,584.362,588.943,584.247L588.943,584.247z"/>
</svg>
