<?xml version="1.0" encoding="utf-8"?>
<!-- Generator: Adobe Illustrator 17.0.0, SVG Export Plug-In . SVG Version: 6.00 Build 0)  -->
<!DOCTYPE svg PUBLIC "-//W3C//DTD SVG 1.1//EN" "http://www.w3.org/Graphics/SVG/1.1/DTD/svg11.dtd">
<svg version="1.1"
	 id="svg2" inkscape:version="0.48.4 r9939" sodipodi:docname="Twitter_bird_logo_2012.svg" xmlns:rdf="http://www.w3.org/1999/02/22-rdf-syntax-ns#" xmlns:cc="http://creativecommons.org/ns#" xmlns:sodipodi="http://sodipodi.sourceforge.net/DTD/sodipodi-0.dtd" xmlns:svg="http://www.w3.org/2000/svg" xmlns:inkscape="http://www.inkscape.org/namespaces/inkscape" xmlns:dc="http://purl.org/dc/elements/1.1/"
	 xmlns="http://www.w3.org/2000/svg" xmlns:xlink="http://www.w3.org/1999/xlink" x="0px" y="0px" width="50px" height="50px"
	 viewBox="60.753 44.689 50 50" enable-background="new 60.753 44.689 50 50" xml:space="preserve">
<sodipodi:namedview  id="base" inkscape:window-x="-8" inkscape:window-maximized="1" inkscape:window-y="-8" inkscape:document-units="px" inkscape:pageshadow="2" inkscape:window-height="962" fit-margin-right="0" inkscape:pageopacity="0.0" fit-margin-bottom="0" inkscape:current-layer="layer1" inkscape:window-width="1280" bordercolor="#666666" pagecolor="#ffffff" fit-margin-left="0" showgrid="false" inkscape:cx="101.29413" inkscape:zoom="3.7200571" borderopacity="1.0" inkscape:cy="50.181142" fit-margin-top="0">
	</sodipodi:namedview>
<g id="layer1" transform="translate(-282.32053,-396.30734)" inkscape:groupmode="layer" inkscape:label="Layer 1">
	<path id="path5" inkscape:connector-curvature="0" fill="#2AA9E0" d="M393.073,450.49c-1.839,0.816-3.817,1.367-5.892,1.615
		c2.118-1.27,3.745-3.28,4.51-5.675c-1.982,1.176-4.178,2.029-6.514,2.489c-1.871-1.994-4.537-3.239-7.488-3.239
		c-5.665,0-10.258,4.593-10.258,10.258c0,0.804,0.091,1.587,0.266,2.338c-8.526-0.428-16.084-4.512-21.144-10.718
		c-0.883,1.515-1.389,3.277-1.389,5.157c0,3.559,1.811,6.699,4.564,8.538c-1.682-0.053-3.263-0.515-4.646-1.283
		c-0.001,0.043-0.001,0.086-0.001,0.129c0,4.97,3.536,9.116,8.229,10.059c-0.861,0.234-1.767,0.36-2.703,0.36
		c-0.661,0-1.303-0.065-1.93-0.184c1.305,4.075,5.094,7.041,9.583,7.124c-3.511,2.751-7.934,4.392-12.74,4.392
		c-0.828,0-1.645-0.049-2.447-0.144c4.54,2.911,9.932,4.609,15.725,4.609c18.868,0,29.187-15.631,29.187-29.187
		c0-0.445-0.01-0.887-0.03-1.327C389.959,454.353,391.698,452.547,393.073,450.49L393.073,450.49z"/>
</g>
</svg>
